<?xml version="1.0" encoding="UTF-8"?><svg id="Layer_2" xmlns="http://www.w3.org/2000/svg" viewBox="0 0 579.97 544.82"><defs><style>.cls-1{fill:#ffd040;}</style></defs><g id="Layer_1-2"><path class="cls-1" d="M579.27,456.48l-67.09-230.06c-1.48-5.08-5.15-9.12-10.06-11.09-4.91-1.97-10.35-1.58-14.94,1.06l-17.66,10.2-.08-25.56c-.02-6.07-3.3-11.74-8.56-14.77l-143.94-83.1c-5.28-3.05-11.84-3.05-17.12,0l-26.57,15.34-.06-18.33c-.02-6.07-3.3-11.74-8.56-14.77L120.71,2.29c-5.28-3.05-11.84-3.05-17.12,0L8.56,57.15c-5.36,3.09-8.56,8.64-8.56,14.82s3.2,11.73,8.56,14.82l133.94,77.33c.89,.51,1.44,1.47,1.45,2.5l.87,287.48c.02,6.18,3.23,11.71,8.58,14.79,2.67,1.54,5.61,2.31,8.54,2.31s5.88-.77,8.56-2.32l26.74-15.44,.08,41.62c.02,6.18,3.23,11.7,8.58,14.79,2.67,1.54,5.61,2.31,8.54,2.31s5.88-.77,8.56-2.32l102.42-59.1,10.78-6.03c7.49-4.19,12.14-12.12,12.14-20.7v-32.15l.23,.11c.19,.12,.36,.26,.55,.37,2.67,1.54,5.6,2.31,8.54,2.31s5.88-.77,8.56-2.32l38.64-22.31,28.98,99.38-34.94,20.17c-5.36,3.09-8.56,8.64-8.56,14.82s3.2,11.73,8.56,14.82l40.37,23.31c2.68,1.55,5.63,2.31,8.57,2.31,3.74,0,7.46-1.24,10.56-3.67,5.53-4.34,7.83-11.51,5.86-18.26l-13.64-46.78,50.42-29.11c.89-.51,2-.51,2.89,0l50.38,29.08c6.09,3.52,13.6,2.98,19.13-1.36,5.53-4.34,7.83-11.51,5.86-18.26Zm-415.9,.08c-1.25,.72-2.35,.31-2.89,0-.54-.31-1.45-1.05-1.45-2.5l-.87-287.48c-.02-6.08-3.3-11.74-8.56-14.77L15.67,74.48c-1.26-.73-1.45-1.88-1.45-2.5s.19-1.78,1.45-2.5L110.71,14.6c.44-.26,.94-.39,1.44-.39s1,.13,1.45,.39l143.94,83.1c.89,.51,1.44,1.47,1.45,2.5l.08,26.49-54.26,31.33h0c-5.36,3.09-8.56,8.64-8.56,14.82s3.2,11.73,8.56,14.82l54.54,31.49,.12,40.71-53.96,31.16c-5.36,3.09-8.56,8.63-8.56,14.82,0,.06,.01,.12,.01,.18l.24,131-33.82,19.53Zm95.74-313.47l.18,59.62-47.38-27.36c-1.26-.73-1.45-1.88-1.45-2.51s.19-1.78,1.45-2.51l47.2-27.25Zm14.82,195.81l-.21-70.82,35.17-20.31,29.85,17.23c.89,.51,1.44,1.47,1.45,2.5l.32,104.57-66.57-33.17Zm-14.04,60.26c0,1.03-.55,2-1.45,2.51l-47.03,27.16-.2-105.3,48.52,24.18,.16,51.45Zm-47.42-90.88c-1.06-.68-1.27-1.67-1.29-2.28v-.16h0c0-.63,.2-1.76,1.44-2.48l46.9-27.08,.17,55.53-47.21-23.52Zm61.19-56.6l-.07-24.29,21.07,12.16-21,12.12Zm60.42,172.33c0,3.43-1.86,6.61-4.86,8.28l-10.86,6.08-102.5,59.15c-1.25,.72-2.35,.31-2.89,0-.54-.31-1.45-1.05-1.45-2.49l-.09-49.79,54.12-31.24c5.3-3.06,8.58-8.76,8.56-14.88l-.13-44.31,60.11,29.96v39.24Zm24.99-44.01c-1.26,.72-2.35,.31-2.89,0l.05-.1-.55-.27c-.47-.41-.95-1.08-.95-2.13l-.33-110.05c-.02-6.08-3.3-11.74-8.56-14.77l-72.3-41.74-.23-76.04,33.63-19.42c.89-.52,2-.52,2.89,0l143.94,83.1c.89,.51,1.44,1.47,1.45,2.5l.1,33.71-65.34,37.72c-6.85,3.95-10.09,12.02-7.87,19.62l18.61,63.83-41.65,24.05Zm96.51-57.4c0,1.03-.55,2-1.45,2.51l-40.74,23.52-17.64-60.49c-.37-1.28,.17-2.64,1.33-3.31l58.28-33.65,.22,71.41Zm-6.01,207.37c-.57,.45-1.76,1.08-3.23,.23l-40.37-23.31c-1.26-.73-1.45-1.88-1.45-2.51s.19-1.78,1.45-2.51l31.93-18.43,12.67,43.44c.48,1.63-.42,2.63-.99,3.08Zm115.04-66.42c-.57,.45-1.76,1.08-3.23,.23l-50.38-29.09c-2.64-1.52-5.6-2.29-8.56-2.29s-5.92,.76-8.56,2.29l-47.41,27.37-28.98-99.38,43.75-25.26c5.3-3.06,8.58-8.76,8.56-14.87l-.24-79.57,24.73-14.28c1.06-.61,2.04-.37,2.52-.18,.49,.2,1.36,.7,1.7,1.88l67.09,230.06c.48,1.63-.42,2.63-.99,3.09Z"/></g></svg>