<svg width="18" height="17" viewBox="0 0 18 17" fill="none" xmlns="http://www.w3.org/2000/svg">
<path d="M9 0C4.30588 0 0.5 3.80588 0.5 8.5C0.5 13.1941 4.30588 17 9 17C13.6941 17 17.5 13.1941 17.5 8.5C17.5 3.80588 13.6941 0 9 0ZM13.2968 6.83188C13.4264 9.69354 11.2922 12.8839 7.51392 12.8839C6.365 12.8839 5.29612 12.5467 4.39583 11.9694C5.47533 12.0969 6.55271 11.7966 7.40767 11.1272C6.518 11.1109 5.76646 10.5223 5.5065 9.71408C5.82596 9.775 6.14046 9.75729 6.42592 9.67937C5.44771 9.48246 4.77196 8.60129 4.79392 7.6585C5.06875 7.81079 5.38183 7.90217 5.71546 7.91279C4.8095 7.30717 4.55308 6.11079 5.08575 5.19633C6.08875 6.42742 7.58829 7.23704 9.27908 7.32204C8.98229 6.04987 9.94775 4.82375 11.2617 4.82375C11.8461 4.82375 12.3752 5.07096 12.7464 5.46621C13.2096 5.37554 13.646 5.20554 14.0384 4.9725C13.8861 5.44779 13.5638 5.84587 13.1438 6.09804C13.5553 6.04846 13.9477 5.93937 14.3118 5.77717C14.0398 6.18658 13.6955 6.545 13.2968 6.83188Z" fill="#134074"/>
</svg>
